# xmcd
#
# Track frame offsets:
#	150
#	17998
#	35669
#	53748
#	74878
#	92706
#	111988
#	129299
#	148936
#	166257
#	186691
#	200717
#	219004
#	239777
#	260153
#	279896
#	296277
#	312054
#	331026
#
# Disc length: 4690 seconds
#
# Revision: 0
# Processed by: cddbd v1.5.2PL0 Copyright (c) Steve Scherf et al.
# Submitted via: audiograbber 1.83.01
#
DISCID=2d125013
DTITLE=Laura Pausini - Exitos 2006
DYEAR=2006
DGENRE=Pop
TTITLE0=Surrender
TTITLE1=Viveme
TTITLE2=Como si no Nos Hubieramos Amado
TTITLE3=Se Fue
TTITLE4=La Soledad
TTITLE5=Amores Extraños
TTITLE6=Inolvidable
TTITLE7=Emergencia de Amor
TTITLE8=Entre Tu y Mil Mares
TTITLE9=Las Cosas que Vives
TTITLE10=Un Error de los Grandes
TTITLE11=Volveré Junto a Tí
TTITLE12=Gente
TTITLE13=En Ausencia de Tí
TTITLE14=One More Time
TTITLE15=Dime
TTITLE16=Escucha Atento
TTITLE17=Bendecida Pasión
TTITLE18=Como Tú y Como Yo
EXTD=
EXTT0=
EXTT1=
EXTT2=
EXTT3=
EXTT4=
EXTT5=
EXTT6=
EXTT7=
EXTT8=
EXTT9=
EXTT10=
EXTT11=
EXTT12=
EXTT13=
EXTT14=
EXTT15=
EXTT16=
EXTT17=
EXTT18=
PLAYORDER=
